<?xml version="1.0" standalone="no"?>
<!DOCTYPE svg PUBLIC "-//W3C//DTD SVG 20010904//EN"
 "http://www.w3.org/TR/2001/REC-SVG-20010904/DTD/svg10.dtd">
<svg version="1.0" xmlns="http://www.w3.org/2000/svg"
 width="512.000000pt" height="512.000000pt" viewBox="0 0 512.000000 512.000000"
 preserveAspectRatio="xMidYMid meet">
<metadata>
Created by potrace 1.14, written by Peter Selinger 2001-2017
</metadata>
<g transform="translate(0.000000,512.000000) scale(0.100000,-0.100000)"
fill="#000000" stroke="none">
<path d="M1748 4565 c-97 -25 -169 -97 -193 -193 -9 -35 -11 -286 -10 -954 l1
-908 -355 0 c-196 -1 -374 -3 -396 -6 -134 -18 -265 -137 -304 -276 -21 -75
-9 -484 17 -603 64 -285 206 -541 408 -736 202 -194 412 -308 689 -376 l110
-27 790 -3 c543 -3 817 -1 875 7 486 64 905 367 1120 810 53 110 107 281 124
395 20 136 21 476 0 544 -38 130 -140 226 -273 257 -45 11 -295 14 -1268 14
-667 0 -1213 3 -1214 8 -3 26 -4 559 0 570 2 7 233 128 513 268 319 160 523
268 547 290 113 102 113 286 0 389 -25 22 -221 125 -541 285 -537 267 -545
270 -640 245z"/>
</g>
</svg>
